HIERARCHY
ROOT Hips
{
  OFFSET 50.8468 84.7368 36.1938
  CHANNELS 6 Xposition Yposition Zposition Zrotation Xrotation Yrotation
  JOINT spine
  {
    OFFSET 0 5.95438 0.342407
    CHANNELS 3 Zrotation Xrotation Yrotation
    JOINT spine1
    {
      OFFSET 0 8.85602 0
      CHANNELS 3 Zrotation Xrotation Yrotation
      JOINT spine2
      {
        OFFSET 0 8.48567 0
        CHANNELS 3 Zrotation Xrotation Yrotation
        JOINT Neck
        {
          OFFSET 0 21.7863 1.0387
          CHANNELS 3 Zrotation Xrotation Yrotation
          JOINT Head
          {
            OFFSET 0 6.5822 0
            CHANNELS 3 Zrotation Xrotation Yrotation
            End Site
            {
              OFFSET 0 15.9326 -5.25436
            }
          }
        }
        JOINT RightShoulder
        {
          OFFSET -3.57307 9.16386 -0.497525
          CHANNELS 3 Zrotation Xrotation Yrotation
          JOINT RightArm
          {
            OFFSET 0 12.0192 0
            CHANNELS 3 Zrotation Xrotation Yrotation
            JOINT RightArmRoll
            {
              OFFSET 0 6.06754 0
              CHANNELS 3 Zrotation Xrotation Yrotation
              JOINT RightForeArm
              {
                OFFSET 0 17.6726 0
                CHANNELS 3 Zrotation Xrotation Yrotation
                JOINT RightForeArmRoll
                {
                  OFFSET 0 6.80872 0
                  CHANNELS 3 Zrotation Xrotation Yrotation
                  JOINT RightHand
                  {
                    OFFSET 0 13.6636 0
                    CHANNELS 3 Zrotation Xrotation Yrotation
                    End Site
                    {
                      OFFSET 0 0 0
                    }
                  }
                }
              }
            }
          }
        }
        JOINT LeftShoulder
        {
          OFFSET 3.57307 9.16386 -0.497525
          CHANNELS 3 Zrotation Xrotation Yrotation
          JOINT LeftArm
          {
            OFFSET 0 12.0192 0
            CHANNELS 3 Zrotation Xrotation Yrotation
            JOINT LeftArmRoll
            {
              OFFSET 0 6.06755 0
              CHANNELS 3 Zrotation Xrotation Yrotation
              JOINT LeftForeArm
              {
                OFFSET 0 17.6726 0
                CHANNELS 3 Zrotation Xrotation Yrotation
                JOINT LeftForeArmRoll
                {
                  OFFSET 0 6.80872 0
                  CHANNELS 3 Zrotation Xrotation Yrotation
                  JOINT LeftHand
                  {
                    OFFSET 0 13.6636 0
                    CHANNELS 3 Zrotation Xrotation Yrotation
                    End Site
                    {
                      OFFSET 0 0 0
                    }
                  }
                }
              }
            }
          }
        }
      }
    }
  }
  JOINT RightUpLeg
  {
    OFFSET -5.27774 -0.967797 -0.811858
    CHANNELS 3 Zrotation Xrotation Yrotation
    JOINT RightUpLegRoll
    {
      OFFSET 0 16.0214 0
      CHANNELS 3 Zrotation Xrotation Yrotation
      JOINT RightLeg
      {
        OFFSET 0 -19.8401 0
        CHANNELS 3 Zrotation Xrotation Yrotation
        JOINT RightLegRoll
        {
          OFFSET 0 19.905 0
          CHANNELS 3 Zrotation Xrotation Yrotation
          JOINT RightFoot
          {
            OFFSET 0 16.5675 0
            CHANNELS 3 Zrotation Xrotation Yrotation
            JOINT RightToeBase
            {
              OFFSET 0 13.8496 0
              CHANNELS 3 Zrotation Xrotation Yrotation
              End Site
              {
                OFFSET 0.00587034 6.70727 -0.773117
              }
            }
          }
        }
      }
    }
  }
  JOINT LeftUpLeg
  {
    OFFSET 5.27774 -0.967797 -0.811858
    CHANNELS 3 Zrotation Xrotation Yrotation
    JOINT LeftUpLegRoll
    {
      OFFSET 0 16.0215 0
      CHANNELS 3 Zrotation Xrotation Yrotation
      JOINT LeftLeg
      {
        OFFSET 0 19.84 0
        CHANNELS 3 Zrotation Xrotation Yrotation
        JOINT LeftLegRoll
        {
          OFFSET 0 20.089 0
          CHANNELS 3 Zrotation Xrotation Yrotation
          JOINT LeftFoot
          {
            OFFSET 0 16.3835 0
            CHANNELS 3 Zrotation Xrotation Yrotation
            JOINT LeftToeBase
            {
              OFFSET 0 13.8496 0
              CHANNELS 3 Zrotation Xrotation Yrotation
              End Site
              {
                OFFSET -0.0263083 6.70727 -0.773117
              }
            }
          }
        }
      }
    }
  }
}
MOTION
Frames: 5
Frame Time: 0.00208333
49.9602 70.4787 8.91477 -6.69467 31.0163 11.5142 1.21325 1.98942 0.190378 2.43581 7.98243 0.178081 2.44019 9.62668 0.140262 -7.18133 17.1516 -3.85976 11.7204 -2.45833 -5.34378 69.2388 4.97082 1.33192 106.256 26.5923 -10.0548 4.88938e-006 4.19462e-006 7.03113e-006 -3.63995 -0.0278352 -1.99239 -4.11978e-006 -2.13651e-006 -3.01161 8.03009 -4.95138 0.69762 -58.9069 -3.43428 2.07255 -126.026 35.5277 31.1746 -5.56597e-015 1.27222e-014 3.18055e-015 3.64173 -0.0278872 1.99263 1.37816e-005 -1.17915e-006 3.0116 -8.03009 -4.95139 -0.697626 -168.383 82.3712 -15.6906 180 1.5258e-005 179.419 -177.375 56.2654 175.886 -4.59875e-006 -2.04132e-007 1.06621 -20.2711 69.7426 21.1102 8.13649 25.2327 -3.48774 144.666 81.0382 39.5744 4.54188e-006 -4.6773e-006 -0.591124 4.11994 -53.9245 4.05664 5.07691e-006 2.71053e-007 -0.772072 17.1544 65.3153 -17.5297 -8.13648 25.2326 3.48774 
49.9656 70.5858 9.0007 -6.69769 30.9797 11.4916 1.20896 1.98323 0.189809 2.42717 7.97004 0.177824 2.43152 9.61431 0.140122 -7.08658 17.0587 -3.8935 11.6851 -2.45547 -5.34033 69.2839 4.92667 1.30222 106.245 26.642 -10.0619 4.88938e-006 4.19462e-006 7.03113e-006 -3.63995 -0.0278352 -1.99239 -4.11978e-006 -2.13651e-006 -3.01161 8.03009 -4.95138 0.69762 -58.9881 -3.39467 2.05475 -125.943 35.5893 31.1123 -6.36111e-015 1.11319e-014 3.18055e-015 3.64175 -0.0278895 1.99263 1.37816e-005 -1.17915e-006 3.0116 -8.03009 -4.95139 -0.697626 -168.512 82.127 -15.5627 180 1.5258e-005 179.419 -177.38 56.0763 175.904 -4.59875e-006 -2.04132e-007 1.06222 -20.2731 69.747 21.1144 8.13649 25.2327 -3.48774 145.698 80.8672 38.5617 4.54188e-006 -4.6773e-006 -0.591025 4.09755 -53.7537 4.03094 5.07691e-006 2.71053e-007 -0.767772 17.1625 65.3308 -17.5405 -8.13648 25.2326 3.48774 
49.9792 70.681 9.08967 -6.70126 30.943 11.4681 1.20482 1.97638 0.189238 2.41883 7.95635 0.17762 2.42315 9.60062 0.139948 -6.99147 16.9753 -3.92601 11.6465 -2.46111 -5.33567 69.3236 4.8813 1.27285 106.242 26.698 -10.0776 4.88938e-006 4.19462e-006 7.03113e-006 -3.63995 -0.0278352 -1.99239 -4.11978e-006 -2.13651e-006 -3.01161 8.03009 -4.95138 0.69762 -59.0721 -3.35369 2.03641 -125.857 35.651 31.0472 5.56597e-015 -1.59028e-015 -0 3.64177 -0.0278918 1.99263 1.37816e-005 -1.17915e-006 3.0116 -8.03009 -4.95139 -0.697626 -168.625 81.8828 -15.4506 180 1.5258e-005 179.419 -177.385 55.8866 175.922 -4.59875e-006 -2.04132e-007 1.05823 -20.2748 69.751 21.1183 8.13649 25.2327 -3.48774 146.692 80.6945 37.5865 4.54188e-006 -4.6773e-006 -0.590911 4.07638 -53.5835 4.00604 5.07691e-006 2.71053e-007 -0.763495 17.1706 65.3464 -17.5511 -8.13648 25.2326 3.48774 
49.9934 70.7777 9.17078 -6.70546 30.9061 11.444 1.20084 1.96888 0.188662 2.4108 7.94134 0.177466 2.41509 9.58561 0.139734 -6.89658 16.9005 -3.95754 11.6056 -2.47559 -5.33011 69.3563 4.83375 1.2436 106.25 26.76 -10.1036 4.88938e-006 4.19462e-006 7.03113e-006 -3.63995 -0.0278352 -1.99239 -4.11978e-006 -2.13651e-006 -3.01161 8.03009 -4.95138 0.69762 -59.1594 -3.31173 2.01782 -125.769 35.7134 30.98 -3.97569e-015 1.27222e-014 -3.18055e-015 3.64179 -0.027894 1.99263 1.37816e-005 -1.17915e-006 3.0116 -8.03009 -4.95139 -0.697626 -168.722 81.6387 -15.3535 180 1.5258e-005 179.419 -177.389 55.6965 175.94 -4.59875e-006 -2.04132e-007 1.05424 -20.2762 69.7547 21.1218 8.13649 25.2327 -3.48774 147.649 80.5202 36.6483 4.54188e-006 -4.6773e-006 -0.59077 4.05635 -53.414 3.98191 5.07691e-006 2.71053e-007 -0.759245 17.1787 65.3621 -17.5619 -8.13648 25.2326 3.48774 
50.0046 70.8692 9.26335 -6.71018 30.8691 11.4192 1.19698 1.9608 0.188081 2.40302 7.92518 0.177354 2.40729 9.56945 0.139487 -6.80192 16.8334 -3.98808 11.5627 -2.49779 -5.32365 69.3827 4.78426 1.21447 106.266 26.8272 -10.1388 4.88938e-006 4.19462e-006 7.03113e-006 -3.63995 -0.0278352 -1.99239 -4.11978e-006 -2.13651e-006 -3.01161 8.03009 -4.95138 0.69762 -59.2495 -3.26878 1.99892 -125.678 35.7765 30.9105 2.38542e-015 4.77083e-015 -0 3.6418 -0.0278962 1.99263 1.37816e-005 -1.17915e-006 3.0116 -8.03009 -4.95139 -0.697626 -168.806 81.3945 -15.27 180 1.5258e-005 179.419 -177.393 55.5059 175.958 -4.59875e-006 -2.04132e-007 1.05026 -20.2773 69.7581 21.1251 8.13649 25.2327 -3.48774 148.574 80.3444 35.7439 4.54188e-006 -4.6773e-006 -0.590607 4.03734 -53.245 3.9585 5.07691e-006 2.71053e-007 -0.755024 17.187 65.3779 -17.5729 -8.13648 25.2326 3.48774 
